<svg width="23" height="24" viewBox="0 0 23 24" fill="none" xmlns="http://www.w3.org/2000/svg">
<path d="M0.722505 19.9541C-0.0585434 20.7351 -0.0585434 22.0015 0.722505 22.7825C1.50355 23.5636 2.76988 23.5636 3.55093 22.7825L0.722505 19.9541ZM22.5215 2.98352C22.5215 1.87895 21.6261 0.983521 20.5215 0.983521H2.52149C1.41692 0.983521 0.521494 1.87895 0.521494 2.98352C0.521494 4.08809 1.41692 4.98352 2.52149 4.98352H18.5215V20.9835C18.5215 22.0881 19.4169 22.9835 20.5215 22.9835C21.6261 22.9835 22.5215 22.0881 22.5215 20.9835V2.98352ZM3.55093 22.7825L21.9357 4.39773L19.1073 1.56931L0.722505 19.9541L3.55093 22.7825Z" fill="white"/>
</svg>
